<?xml version="1.0" encoding="UTF-8"?>
<svg version="1.1" xmlns="http://www.w3.org/2000/svg" width="1024" height="320">
<path d="M0 0 C337.92 0 675.84 0 1024 0 C1024 105.6 1024 211.2 1024 320 C686.08 320 348.16 320 0 320 C0 214.4 0 108.8 0 0 Z " fill="#F4F3F1" transform="translate(0,0)"/>
<path d="M0 0 C1.59084817 -0.00435229 3.18169424 -0.00953716 4.77253723 -0.01548767 C9.07634048 -0.02883359 13.38005567 -0.02946124 17.68387556 -0.02692437 C21.28458215 -0.02585162 24.88527115 -0.03074582 28.48597395 -0.03552979 C36.98496618 -0.04660983 45.48391421 -0.04707091 53.98291016 -0.04101562 C62.73298639 -0.03497703 71.48290177 -0.04728738 80.23295057 -0.06858569 C87.76187866 -0.08623376 95.2907557 -0.09219799 102.8197037 -0.08894795 C107.30914158 -0.08713999 111.79846472 -0.08972242 116.28788376 -0.10366249 C120.51181781 -0.11628843 124.73550214 -0.11425195 128.9594326 -0.1012516 C130.50329487 -0.09889658 132.04717498 -0.1015817 133.59101677 -0.10987473 C148.522798 -0.18425564 160.14235439 2.57737284 171.47509766 12.7746582 C178.8167063 20.4743941 183.39446323 30.96616646 183.43476868 41.55259705 C183.44550163 43.48895523 183.44550163 43.48895523 183.45645142 45.46443176 C183.45929158 46.89327979 183.46200332 48.32212807 183.46459961 49.75097656 C183.47086714 51.2575496 183.4775142 52.7641211 183.48451233 54.27069092 C183.50553113 59.21861703 183.51591676 64.16654336 183.52587891 69.11450195 C183.52992811 70.82172728 183.53404508 72.52895244 183.53822899 74.23617744 C183.55728057 82.26284707 183.57150832 90.28950754 183.57984096 98.31619543 C183.58959563 107.55868655 183.61586882 116.80093706 183.65634185 126.04334348 C183.68659795 133.20025798 183.70131903 140.3571039 183.70462197 147.51408106 C183.70696281 151.78184956 183.71579548 156.04936102 183.74108315 160.31706047 C183.7645339 164.33990043 183.76852968 168.36231727 183.75832176 172.38520813 C183.75783029 173.85203022 183.76403431 175.31887434 183.77787781 176.78563118 C183.90753743 191.35303173 181.19344887 203.27793172 171.28759766 214.2746582 C163.02667773 222.2676564 153.05675211 226.38102677 141.62329102 226.42182922 C140.95455397 226.42550591 140.28581692 226.4291826 139.59681511 226.4329707 C137.35701605 226.44397931 135.11726344 226.44784663 132.87744141 226.45166016 C131.27072503 226.45792715 129.6640101 226.46457416 128.05729675 226.47157288 C122.77990728 226.49259498 117.50251759 226.5029764 112.22509766 226.51293945 C110.40517156 226.51698829 108.58524561 226.52110525 106.76531982 226.52528954 C98.21058939 226.54434044 89.65586756 226.55856933 81.10112 226.5669015 C71.24453021 226.57666128 61.38816576 226.60294824 51.53165531 226.6434024 C43.90257362 226.67363331 36.27355625 226.68837714 28.64441586 226.69168252 C24.09331699 226.69402586 19.54245886 226.70289205 14.99142456 226.72814369 C10.70348469 226.75155057 6.41594187 226.7556074 2.12795448 226.74538231 C0.56234727 226.74488982 -1.00328033 226.75112471 -2.56882668 226.76493835 C-17.20340082 226.88674053 -28.57728635 224.16451811 -39.71240234 214.2746582 C-42.04732556 211.76983413 -43.93975629 209.20038471 -45.71240234 206.2746582 C-46.10041016 205.63786133 -46.48841797 205.00106445 -46.88818359 204.3449707 C-52.23276018 194.66642837 -52.01164585 184.04947595 -52.00292969 173.26904297 C-52.00892544 171.77804227 -52.01573336 170.28704465 -52.02328491 168.79605103 C-52.04084141 164.77328878 -52.04563576 160.75061178 -52.04691648 156.72781491 C-52.04834404 154.20865524 -52.05262493 151.68951683 -52.05791092 149.17036247 C-52.07637389 140.36551425 -52.08458585 131.56072632 -52.08300781 122.75585938 C-52.08180603 114.5737512 -52.10292511 106.39190664 -52.13449514 98.20986515 C-52.16071296 91.16155441 -52.17137287 84.11332952 -52.17009699 77.06497043 C-52.16958917 72.86555649 -52.17517315 68.66637737 -52.19645309 64.46701241 C-52.21592991 60.5163049 -52.21589621 56.5660541 -52.20141983 52.61532974 C-52.19934258 51.17347096 -52.20396735 49.73158283 -52.21614075 48.28977394 C-52.33528294 33.18969584 -48.23577964 22.10582121 -37.96240234 11.0246582 C-27.11462809 0.63232486 -14.22020803 -0.02572999 0 0 Z " fill="#117FD8" transform="translate(145.71240234375,46.725341796875)"/>
<path d="M0 0 C0.8119986 -0.00525696 1.62399719 -0.01051392 2.46060181 -0.01593018 C5.13669236 -0.02910168 7.81218496 -0.02040231 10.48828125 -0.01025391 C12.35245884 -0.01227546 14.21663566 -0.01518758 16.08081055 -0.01895142 C19.98461448 -0.0233709 23.88821225 -0.01695577 27.79199219 -0.00292969 C32.7923168 0.01416196 37.79215832 0.00431877 42.79246521 -0.01364708 C46.64094676 -0.02449503 50.48931405 -0.02103392 54.33779907 -0.0132637 C56.18136655 -0.0112645 58.02494445 -0.01371115 59.86849976 -0.02070236 C62.44646631 -0.02833349 65.02365386 -0.01668963 67.6015625 0 C68.36119293 -0.00607269 69.12082336 -0.01214539 69.9034729 -0.0184021 C75.82675741 0.05252836 78.93772076 1.54758638 83.08886719 5.64868164 C85.23606793 9.08475402 85.26242258 11.1900383 85.19140625 15.22021484 C85.17851562 16.5125 85.165625 17.80478516 85.15234375 19.13623047 C85.11892759 20.49105905 85.08506787 21.84587676 85.05078125 23.20068359 C85.03070159 24.57500676 85.01245338 25.94935798 84.99609375 27.32373047 C84.94899857 30.67926216 84.8832326 34.03336486 84.80078125 37.38818359 C82.7132518 37.63755295 80.62273182 37.86198278 78.53125 38.07568359 C77.36746826 38.20330078 76.20368652 38.33091797 75.00463867 38.46240234 C71.80078125 38.38818359 71.80078125 38.38818359 69.63574219 37.0300293 C68.55735455 35.86707919 67.5234603 34.66213864 66.5234375 33.43115234 C60.01282184 25.70994602 50.06509904 21.03945779 40.15625 20.00927734 C26.07437839 19.56698958 15.84535278 24.068718 5.50390625 33.47802734 C3.5390774 35.4034162 1.63275051 37.33620879 -0.19921875 39.38818359 C-0.78832031 40.04431641 -1.37742188 40.70044922 -1.984375 41.37646484 C-3.36143499 43.26512599 -3.36143499 43.26512599 -3.19921875 45.27099609 C-1.72518974 48.39179189 0.46695107 50.76647355 2.80078125 53.26318359 C3.29698975 53.79621094 3.79319824 54.32923828 4.30444336 54.87841797 C13.7818604 64.80381418 24.52873444 68.90501605 37.80078125 71.38818359 C38.16364032 75.0332073 38.51461193 78.67927738 38.86328125 82.32568359 C38.96705078 83.36660156 39.07082031 84.40751953 39.17773438 85.47998047 C39.27119141 86.46933594 39.36464844 87.45869141 39.4609375 88.47802734 C39.59447632 89.85269165 39.59447632 89.85269165 39.73071289 91.25512695 C39.75383545 91.95903564 39.77695801 92.66294434 39.80078125 93.38818359 C38.25579023 94.93317461 36.80264992 94.53046484 34.65161133 94.54931641 C33.32937309 94.56372772 33.32937309 94.56372772 31.98042297 94.57843018 C31.02008652 94.58268005 30.05975006 94.58692993 29.0703125 94.59130859 C28.08713547 94.59700867 27.10395844 94.60270874 26.09098816 94.60858154 C24.00362225 94.61805026 21.91624127 94.62457291 19.82885742 94.62841797 C16.64409951 94.63809 13.45999596 94.66908196 10.27539062 94.70068359 C8.24870175 94.70721674 6.22200826 94.71246599 4.1953125 94.71630859 C2.76998955 94.7348288 2.76998955 94.7348288 1.31587219 94.75372314 C-5.17075354 94.73202692 -9.46944729 93.74906702 -14.51171875 89.38818359 C-17.68764862 85.62411857 -17.34052735 81.99921077 -17.3762207 77.25805664 C-17.3827919 76.53573853 -17.3893631 75.81342041 -17.39613342 75.06921387 C-17.41583948 72.67944227 -17.42752279 70.28973342 -17.4375 67.89990234 C-17.44157553 67.08270029 -17.44565105 66.26549824 -17.44985008 65.42353249 C-17.47069906 61.09835692 -17.48500599 56.77321297 -17.49438477 52.44799805 C-17.50544856 47.98573786 -17.53985112 43.52397642 -17.57955647 39.06189251 C-17.60572715 35.62601304 -17.61407697 32.19025237 -17.61766624 28.754282 C-17.62253083 27.10967451 -17.63414125 25.46507228 -17.65270424 23.82056236 C-17.67710706 21.51547299 -17.67612931 19.21167369 -17.66918945 16.90649414 C-17.67505569 15.59649948 -17.68092194 14.28650482 -17.68696594 12.93681335 C-16.97867047 7.78357324 -14.93685123 4.82542748 -10.96166992 1.53744507 C-7.29391372 0.0115499 -3.90653518 -0.03122991 0 0 Z " fill="#F4F3F1" transform="translate(173.19921875,108.61181640625)"/>
<path d="M0 0 C5.61 0 11.22 0 17 0 C17.33 11.22 17.66 22.44 18 34 C20.97 31.525 20.97 31.525 24 29 C29.42204769 25.37798434 36.76814005 26.49865892 43 27 C50.20561179 28.58751605 55.60276408 32.0810743 60 38 C66.5375846 49.02049976 67.4995512 60.55400822 65.50390625 73.125 C63.10626719 81.79442936 58.49073304 88.93784146 51 94 C43.74431882 97.88697206 36.09419191 97.82089405 28 97 C23.99941442 95.75602229 20.98922858 93.98922858 18 91 C17.67 92.65 17.34 94.3 17 96 C11.39 96 5.78 96 0 96 C0 64.32 0 32.64 0 0 Z " fill="#30353B" transform="translate(877,107)"/>
<path d="M0 0 C5.94 0 11.88 0 18 0 C18 12.87 18 25.74 18 39 C31.2 39 44.4 39 58 39 C58 26.13 58 13.26 58 0 C63.94 0 69.88 0 76 0 C76 31.35 76 62.7 76 95 C70.06 95 64.12 95 58 95 C58 81.8 58 68.6 58 55 C44.8 55 31.6 55 18 55 C18 68.2 18 81.4 18 95 C12.06 95 6.12 95 0 95 C0 63.65 0 32.3 0 0 Z " fill="#363B41" transform="translate(722,108)"/>
<path d="M0 0 C7.2013554 5.76108432 12.05970364 13.08915866 13.8125 22.25 C14.7255408 34.56856691 13.86133493 46.008695 5.5625 55.8125 C-1.96761005 63.45425912 -9.78667572 65.50880564 -20.1875 65.6875 C-29.8371218 65.74613804 -36.84643596 63.81134666 -44.328125 57.421875 C-52.56836563 48.90465149 -54.5274213 38.03851963 -54.3984375 26.59765625 C-53.76138714 16.48743111 -49.451995 8.61141534 -42.4375 1.4375 C-29.55820916 -7.23125345 -13.53696086 -7.43205695 0 0 Z " fill="#30353B" transform="translate(627.1875,138.75)"/>
<path d="M0 0 C5.94 0 11.88 0 18 0 C20.31248465 7.0572778 22.6236183 14.1149962 24.93359375 21.1730957 C25.71676682 23.56546474 26.50028526 25.95772075 27.28417969 28.34985352 C31.9347353 42.54237393 36.54379522 56.74514678 41 71 C44.17242051 63.43895545 46.78199206 55.76280693 49.2578125 47.94921875 C49.64693817 46.73224808 50.03606384 45.5152774 50.4369812 44.26142883 C51.46124847 41.05685469 52.48260244 37.85138621 53.50219727 34.64532471 C54.94306312 30.11586036 56.38777812 25.58762838 57.83444214 21.06001282 C58.6021506 18.65666342 59.36795438 16.25270457 60.13162231 13.84806824 C60.47893402 12.7595607 60.82624573 11.67105316 61.18408203 10.54956055 C61.63897507 9.11920723 61.63897507 9.11920723 62.10305786 7.65995789 C62.97530292 5.07324127 63.9861705 2.53457374 65 0 C70.94 0 76.88 0 83 0 C81.02658695 7.45099629 78.83569961 14.76721935 76.375 22.0703125 C76.03121811 23.09882828 75.68743622 24.12734406 75.33323669 25.18702698 C74.2249721 28.50063451 73.11252125 31.81281947 72 35.125 C71.23545626 37.40850887 70.47121657 39.69211955 69.70727539 41.97583008 C68.18660615 46.52064757 66.6644856 51.06497458 65.14111328 55.60888672 C62.46659735 63.58862175 59.80550313 71.57280944 57.14672852 79.55780029 C56.03476285 82.89685519 54.92163829 86.23552334 53.80859375 89.57421875 C53.21175781 91.36472656 52.61492187 93.15523438 52 95 C45.07 95 38.14 95 31 95 C24.73841448 78.14188513 18.98609801 61.14805124 13.34725952 44.07498169 C11.51622898 38.53818972 9.65656064 33.01154204 7.78515625 27.48828125 C7.01926151 25.22023838 6.25387338 22.95202524 5.48867798 20.68374634 C4.99948792 19.23755866 4.50828304 17.79205082 4.01498413 16.34725952 C3.33266844 14.34788398 2.65775264 12.34615022 1.984375 10.34375 C1.40768066 8.64508789 1.40768066 8.64508789 0.81933594 6.91210938 C0 4 0 4 0 0 Z " fill="#31363C" transform="translate(365,108)"/>
<path d="M0 0 C5.95606654 3.98192772 11.38224286 9.76240611 12.9375 16.9375 C13.42140346 22.93636666 13.65595441 28.55286511 11.375 34.1875 C10.51111874 37.88429877 10.51111874 37.88429877 12.5625 40.140625 C14.94308287 42.50512285 17.42691475 44.71238628 19.9375 46.9375 C21.15054636 48.26883096 22.34035219 49.62190691 23.5 51 C25.9551286 53.90465919 28.56638548 56.43775517 31.375 59 C34.26697913 61.84714224 34.87579529 62.59531934 35.625 66.75 C34.9375 69.9375 34.9375 69.9375 33.8125 71.875 C30.88094371 73.53621523 29.27067216 73.51439518 25.9375 72.9375 C21.13015084 69.92047398 17.54444024 65.44720464 13.90625 61.1640625 C10.12570977 56.88845152 6.00482423 52.93790299 1.9375 48.9375 C1.2775 48.2775 0.6175 47.6175 -0.0625 46.9375 C-1.17625 47.4325 -2.29 47.9275 -3.4375 48.4375 C-11.17317638 51.28390205 -18.27121249 50.61818998 -25.73828125 47.25390625 C-32.1782451 43.60639732 -35.97011358 38.63345717 -38.3984375 31.67578125 C-40.37824348 23.51199306 -39.7890219 16.45703703 -35.61328125 9.12890625 C-27.7070006 -2.04344499 -12.55144413 -6.45685496 0 0 Z " fill="#F3F3F1" transform="translate(262.0625,162.0625)"/>
<path d="M0 0 C5.57422011 3.83068551 9.04654659 8.6614716 10.7109375 15.17578125 C10.98213895 19.16432606 10.94353101 23.14059486 10.90625 27.13671875 C10.9034201 28.2824234 10.90059021 29.42812805 10.89767456 30.60855103 C10.88650885 34.2560688 10.86141049 37.9033381 10.8359375 41.55078125 C10.82590305 44.02864228 10.81677801 46.50650717 10.80859375 48.984375 C10.78658126 55.04827234 10.75207588 61.11198471 10.7109375 67.17578125 C5.1009375 67.17578125 -0.5090625 67.17578125 -6.2890625 67.17578125 C-6.30364502 65.81372559 -6.31822754 64.45166992 -6.33325195 63.04833984 C-6.39133555 57.98264652 -6.46856841 52.917393 -6.55151367 47.85205078 C-6.5847156 45.66201937 -6.6127622 43.47190336 -6.63549805 41.28173828 C-6.66913059 38.12886595 -6.72145198 34.97676552 -6.77734375 31.82421875 C-6.78373367 30.84899261 -6.7901236 29.87376648 -6.79670715 28.86898804 C-6.91009802 23.59589458 -7.25115528 19.6889618 -10.2890625 15.17578125 C-14.97249799 12.05349093 -19.80874862 12.60553237 -25.2890625 13.17578125 C-28.55630227 14.37177168 -28.55630227 14.37177168 -30.2890625 17.17578125 C-32.28553078 23.34518893 -32.61572861 29.58951663 -32.703125 36.0234375 C-32.72249115 36.92074081 -32.7418573 37.81804413 -32.7618103 38.74253845 C-32.82100956 41.57435971 -32.86774999 44.40622296 -32.9140625 47.23828125 C-32.95229733 49.17254258 -32.99135216 51.10678788 -33.03125 53.04101562 C-33.12666107 57.75247214 -33.21090889 62.46400816 -33.2890625 67.17578125 C-38.5690625 67.17578125 -43.8490625 67.17578125 -49.2890625 67.17578125 C-49.2890625 44.73578125 -49.2890625 22.29578125 -49.2890625 -0.82421875 C-44.0090625 -0.82421875 -38.7290625 -0.82421875 -33.2890625 -0.82421875 C-32.9590625 1.15578125 -32.6290625 3.13578125 -32.2890625 5.17578125 C-31.74636719 4.75425781 -31.20367188 4.33273438 -30.64453125 3.8984375 C-29.92910156 3.35058594 -29.21367188 2.80273438 -28.4765625 2.23828125 C-27.76886719 1.69300781 -27.06117188 1.14773437 -26.33203125 0.5859375 C-19.92209457 -3.8385121 -6.99364618 -3.22196363 0 0 Z " fill="#2F3439" transform="translate(699.2890625,135.82421875)"/>
<path d="M0 0 C5.61 0 11.22 0 17 0 C17.01458252 1.36729248 17.02916504 2.73458496 17.04418945 4.14331055 C17.10221463 9.22202548 17.17944785 14.30029903 17.26245117 19.37866211 C17.29568055 21.57552927 17.32371866 23.7724814 17.34643555 25.96948242 C17.38001754 29.12976243 17.43233634 32.28926521 17.48828125 35.44921875 C17.49467117 36.42960617 17.5010611 37.40999359 17.50764465 38.42008972 C17.61457544 43.39317357 17.70484514 46.9977046 21 51 C23.90200363 53.33772514 25.72300894 53.96474659 29.4375 54.4375 C33.774191 53.90492391 35.73460574 52.89432673 39 50 C42.11111068 44.26734899 42.46615859 39.35883906 42.51171875 32.91015625 C42.52966995 31.96563095 42.54762115 31.02110565 42.56611633 30.04795837 C42.61998156 27.05285 42.65403858 24.05789881 42.6875 21.0625 C42.72069407 19.0227647 42.75518565 16.98305008 42.79101562 14.94335938 C42.87569435 9.96235343 42.94261872 4.98139217 43 0 C48.28 0 53.56 0 59 0 C59 22.44 59 44.88 59 68 C53.72 68 48.44 68 43 68 C42.67 66.35 42.34 64.7 42 63 C41.52949219 63.34933594 41.05898438 63.69867188 40.57421875 64.05859375 C39.95160156 64.51363281 39.32898438 64.96867187 38.6875 65.4375 C38.07261719 65.88996094 37.45773437 66.34242188 36.82421875 66.80859375 C31.1590381 70.50855114 23.48888576 69.4741357 17 69 C10.86977206 67.44400942 6.26396062 63.35328054 3 58 C-0.089384 51.2793363 -0.4009339 45.61936938 -0.29296875 38.28125 C-0.28872391 37.18276733 -0.28447906 36.08428467 -0.28010559 34.95251465 C-0.26340661 31.4680864 -0.22576996 27.98425139 -0.1875 24.5 C-0.17244185 22.12761256 -0.15875543 19.75521599 -0.14648438 17.3828125 C-0.11353173 11.58831552 -0.06180965 5.79425811 0 0 Z " fill="#30343A" transform="translate(808,135)"/>
<path d="M0 0 C5.96328686 3.18226445 9.12566113 7.71585993 11.68359375 13.8984375 C11.68359375 15.2184375 11.68359375 16.5384375 11.68359375 17.8984375 C6.07359375 17.8984375 0.46359375 17.8984375 -5.31640625 17.8984375 C-6.30640625 15.9184375 -7.29640625 13.9384375 -8.31640625 11.8984375 C-11.66511611 9.26730832 -15.19628689 9.53702352 -19.31640625 9.8984375 C-21.62920236 11.05483556 -23.49050453 12.07253578 -25.31640625 13.8984375 C-25.76280788 17.94356093 -25.76280788 17.94356093 -24.14770508 21.50219727 C-21.75635012 23.32544204 -19.70415941 23.74154447 -16.765625 24.36328125 C-15.67443359 24.60626953 -14.58324219 24.84925781 -13.45898438 25.09960938 C-11.16760451 25.58793623 -8.87594006 26.07492977 -6.58398438 26.56054688 C1.01533447 28.25574513 6.16280948 29.56010158 10.99609375 35.9609375 C13.98283158 41.16007373 14.52756815 45.50103736 13.0703125 51.3671875 C10.31379075 59.4303172 5.89686607 62.71339056 -1.46484375 66.53125 C-5.94996553 68.39201557 -10.32877929 68.39379759 -15.12890625 68.3359375 C-16.01602295 68.32691406 -16.90313965 68.31789063 -17.81713867 68.30859375 C-25.45864885 68.10626269 -31.6687883 67.31639062 -37.42578125 61.921875 C-42.7464045 56.06918942 -43.31640625 54.46227298 -43.31640625 45.8984375 C-38.03640625 45.8984375 -32.75640625 45.8984375 -27.31640625 45.8984375 C-26.32640625 48.2084375 -25.33640625 50.5184375 -24.31640625 52.8984375 C-21.33510642 55.19757551 -18.50726144 55.16871692 -14.81640625 55.1484375 C-13.40875 55.15617187 -13.40875 55.15617187 -11.97265625 55.1640625 C-9.24182281 54.89097916 -7.6103769 54.37909128 -5.31640625 52.8984375 C-3.75701647 49.77965794 -3.95562285 47.32587979 -4.31640625 43.8984375 C-9.06665667 39.97971985 -15.22401245 39.56022031 -21.10351562 38.52539062 C-29.85656222 36.85847578 -36.05191603 34.2368178 -41.31640625 26.8984375 C-43.67516055 22.1809289 -42.89280711 16.00210334 -42.31640625 10.8984375 C-39.92722904 5.11504175 -35.7522556 2.05463948 -30.1484375 -0.41015625 C-21.51665287 -3.66778073 -8.60407754 -3.65631365 0 0 Z " fill="#31353B" transform="translate(526.31640625,136.1015625)"/>
<path d="M0 0 C2.47923801 -0.02685095 4.9581884 -0.04676547 7.4375 -0.0625 C8.14455078 -0.07087891 8.85160156 -0.07925781 9.58007812 -0.08789062 C11.38693559 -0.09653588 13.19387603 -0.05220011 15 0 C16.90713656 1.90713656 16.22156811 5.30790476 16.28125 7.84375 C16.30886414 8.87018616 16.30886414 8.87018616 16.33703613 9.9173584 C16.41595245 12.85636295 16.48353283 15.79560536 16.55224609 18.73486328 C16.60387772 20.87544432 16.66116623 23.01582219 16.71875 25.15625 C16.74904297 26.44337891 16.77933594 27.73050781 16.81054688 29.05664062 C16.6675439 31.88761946 16.6675439 31.88761946 18 33 C20.59153107 33.15996166 23.1595202 33.25938697 25.75390625 33.31640625 C26.52935287 33.33718735 27.3047995 33.35796844 28.10374451 33.37937927 C30.58990308 33.44495802 33.07617045 33.50379799 35.5625 33.5625 C37.24415204 33.60567733 38.92579294 33.64929136 40.60742188 33.69335938 C44.7381712 33.80147281 48.86899867 33.90048331 53 34 C53 39.28 53 44.56 53 50 C47.55569418 50.07437576 42.11168671 50.12870866 36.66699219 50.16479492 C34.81635381 50.17984471 32.96575089 50.20028933 31.11523438 50.22631836 C28.44912955 50.2628698 25.78349792 50.27976454 23.1171875 50.29296875 C22.29507782 50.30845261 21.47296814 50.32393646 20.62594604 50.33988953 C14.28703587 50.34173016 10.25826026 48.8906365 5.3125 44.75 C0.50145268 39.02875454 -0.44622429 33.88011175 -0.29296875 26.66015625 C-0.28872391 25.89319931 -0.28447906 25.12624237 -0.28010559 24.33604431 C-0.2634507 21.91115668 -0.22582553 19.48713202 -0.1875 17.0625 C-0.17243601 15.40821522 -0.15875062 13.75391727 -0.14648438 12.09960938 C-0.11359077 8.06607897 -0.06190249 4.03318527 0 0 Z " fill="#F2F3F1" transform="translate(125,190)"/>
<path d="M0 0 C0.83541824 0.00045822 1.67083649 0.00091644 2.53157043 0.00138855 C4.29246445 0.00440373 6.05335598 0.01226803 7.81420898 0.0246582 C10.52011471 0.0429727 13.22567925 0.0451674 15.93164062 0.04492188 C17.64193006 0.04983509 19.35221717 0.05566255 21.0625 0.0625 C21.87599411 0.06361282 22.68948822 0.06472565 23.52763367 0.06587219 C29.21596451 0.11440201 29.21596451 0.11440201 30.33203125 1.23046875 C30.40516692 3.76096277 30.42450652 6.26351712 30.39453125 8.79296875 C30.39001953 9.50388672 30.38550781 10.21480469 30.38085938 10.94726562 C30.36903989 12.70836888 30.35110388 14.46942911 30.33203125 16.23046875 C28.74950562 16.26805298 28.74950562 16.26805298 27.13500977 16.30639648 C23.23432497 16.40030984 19.333825 16.50056909 15.43334961 16.6027832 C13.74263826 16.64619314 12.05188134 16.68786364 10.36108398 16.7277832 C7.93589519 16.78533969 5.5109371 16.84907524 3.0859375 16.9140625 C1.94530602 16.93913124 1.94530602 16.93913124 0.78163147 16.96470642 C-2.73878906 16.75138143 -2.73878906 16.75138143 -5.66796875 18.23046875 C-5.8144959 20.43592901 -5.89546387 22.64580009 -5.94921875 24.85546875 C-5.96762817 25.51756348 -5.9860376 26.1796582 -6.00500488 26.86181641 C-6.06391572 28.9846079 -6.11666799 31.10748049 -6.16796875 33.23046875 C-6.23543203 36.0223137 -6.3090994 38.8138898 -6.38671875 41.60546875 C-6.4321582 43.47332031 -6.4321582 43.47332031 -6.47851562 45.37890625 C-6.66796875 48.23046875 -6.66796875 48.23046875 -7.66796875 49.23046875 C-10.19846277 49.30360442 -12.70101712 49.32294402 -15.23046875 49.29296875 C-16.2968457 49.28620117 -16.2968457 49.28620117 -17.38476562 49.27929688 C-19.14586888 49.26747739 -20.90692911 49.24954138 -22.66796875 49.23046875 C-22.767195 44.21343696 -22.83960462 39.19698223 -22.88769531 34.17919922 C-22.90775244 32.47401981 -22.93500532 30.76890869 -22.96972656 29.06396484 C-23.01850736 26.60627351 -23.04099594 24.14949509 -23.05859375 21.69140625 C-23.07923889 20.93491791 -23.09988403 20.17842957 -23.12115479 19.39901733 C-23.1236426 13.46781972 -21.30055805 9.94203572 -17.10546875 5.62109375 C-11.19132947 0.9283528 -7.54468103 -0.06714267 0 0 Z " fill="#F4F3F1" transform="translate(147.66796875,78.76953125)"/>
<path d="M0 0 C1.13115234 -0.00855011 1.13115234 -0.00855011 2.28515625 -0.01727295 C3.88914582 -0.0267437 5.49315504 -0.03326513 7.09716797 -0.03710938 C9.52477462 -0.04672556 11.95150182 -0.07768953 14.37890625 -0.109375 C32.34601801 -0.23663662 32.34601801 -0.23663662 38.9375 5.140625 C39.47375 5.82125 40.01 6.501875 40.5625 7.203125 C41.119375 7.88375 41.67625 8.564375 42.25 9.265625 C45.01591586 13.34864366 44.6927014 17.42250159 44.66015625 22.15234375 C44.6587413 22.92496048 44.65732635 23.69757721 44.65586853 24.49360657 C44.65027466 26.95931889 44.63772333 29.42494015 44.625 31.890625 C44.61998421 33.56314973 44.61542144 35.23567588 44.61132812 36.90820312 C44.60115847 41.00657366 44.58158194 45.10474748 44.5625 49.203125 C39.2825 49.203125 34.0025 49.203125 28.5625 49.203125 C28.50191406 46.97691406 28.44132812 44.75070313 28.37890625 42.45703125 C28.31715881 40.30912737 28.2537538 38.16127841 28.19018555 36.01342773 C28.14678187 34.51673231 28.10511087 33.01998561 28.06518555 31.52319336 C28.00761384 29.37598188 27.94388284 27.22902979 27.87890625 25.08203125 C27.82391968 23.14179077 27.82391968 23.14179077 27.76782227 21.16235352 C27.8957722 18.31757492 27.8957722 18.31757492 26.5625 17.203125 C24.05533162 17.05555502 21.57210951 16.9682016 19.0625 16.921875 C17.93618164 16.89426086 17.93618164 16.89426086 16.78710938 16.86608887 C14.37898813 16.80716196 11.97079529 16.75441632 9.5625 16.703125 C6.39567556 16.6356787 3.22908916 16.5620108 0.0625 16.484375 C-0.67291016 16.47079956 -1.40832031 16.45722412 -2.16601562 16.4432373 C-7.32469819 16.31592681 -7.32469819 16.31592681 -8.4375 15.203125 C-8.53659302 12.87152445 -8.56720504 10.53682558 -8.5625 8.203125 C-8.56507813 6.924375 -8.56765625 5.645625 -8.5703125 4.328125 C-8.32596966 -1.42111837 -4.7686405 0.02767889 0 0 Z " fill="#F2F2F1" transform="translate(252.4375,78.796875)"/>
<path d="M0 0 C5.48470023 2.44852689 7.44555324 5.79649734 10 11 C12.3811636 18.14349079 11.82874702 27.04727555 9.1171875 34.05859375 C6.83202288 38.02966654 3.38966951 41.25120607 -1.01953125 42.6328125 C-7.0963124 43.75947409 -10.90014765 42.92822297 -16.10546875 39.875 C-20.89679898 35.13306493 -22.51528243 29.54953587 -22.59570312 22.93359375 C-22.58474609 22.13050781 -22.57378906 21.32742187 -22.5625 20.5 C-22.58634766 19.69691406 -22.61019531 18.89382812 -22.63476562 18.06640625 C-22.61980341 11.91194813 -21.00469462 7.69701039 -17 3 C-11.87649675 -1.13979063 -6.2977327 -0.75196808 0 0 Z " fill="#F4F2F1" transform="translate(613,148)"/>
<path d="M0 0 C5.61 0 11.22 0 17 0 C17 22.44 17 44.88 17 68 C11.39 68 5.78 68 0 68 C0 45.56 0 23.12 0 0 Z " fill="#2E3339" transform="translate(457,135)"/>
<path d="M0 0 C4.88478796 2.35193495 7.36061943 5.30776787 10 10 C12.34782793 17.09044034 12.14890667 26.25128867 9.3125 33.125 C7.10205974 37.35708846 4.26801488 39.86599256 0 42 C-5.28305214 42.52657873 -9.66862857 42.64191122 -14.5 40.3125 C-19.5865289 35.60746077 -20.77677824 31.26782017 -21.23828125 24.51171875 C-21.50781007 10.62389166 -21.50781007 10.62389166 -17 5 C-11.53697645 -0.07280758 -7.30222133 -0.79762725 0 0 Z " fill="#F4F2F1" transform="translate(915,148)"/>
<path d="M0 0 C5.28 0 10.56 0 16 0 C16 22.44 16 44.88 16 68 C10.72 68 5.44 68 0 68 C0 45.56 0 23.12 0 0 Z " fill="#2E3338" transform="translate(548,135)"/>
<path d="M0 0 C3.77702297 2.63513231 6.60374735 5.7074947 8.6875 9.875 C9.24424965 15.82793853 9.22891118 20.84848091 5.6875 25.875 C2.21714072 29.97195193 -0.93190083 32.18405232 -6.3125 32.9375 C-11.01798268 33.11573798 -14.2375539 32.38265914 -18.3125 29.875 C-22.74642051 25.62164639 -25.3981452 21.97540234 -25.6875 15.6875 C-25.60943946 10.36203659 -23.82375009 6.8229284 -20.3125 2.875 C-14.51239172 -2.35098589 -7.1392625 -2.42465519 0 0 Z " fill="#127DD8" transform="translate(257.3125,170.125)"/>
<path d="M0 0 C3.97720993 2.062257 6.65438743 4.19756822 9 8 C9.88422781 12.85982573 10.16575184 17.8966557 7.72265625 22.3046875 C5.04059013 25.4654598 2.88106588 27.75355853 -1.35546875 28.30859375 C-6.41167237 28.53873819 -10.03482833 28.62640707 -14.0625 25.3125 C-17.21140555 22.06542713 -18.88414644 19.55360561 -19.09375 14.93359375 C-18.87010847 9.42642104 -17.27478803 6.33343826 -13.5703125 2.3125 C-9.78163239 -0.854158 -4.66519365 -0.58215237 0 0 Z " fill="#F6F6F5" transform="translate(213,139)"/>
<path d="M0 0 C5.94 0 11.88 0 18 0 C18 31.35 18 62.7 18 95 C12.06 95 6.12 95 0 95 C0 81.8 0 68.6 0 55 C-13.2 55 -26.4 55 -40 55 C-40 54.67 -40 54.34 -40 54 C-26.47 54 -12.94 54 1 54 C1 67.2 1 80.4 1 94 C5.95 94 10.9 94 16 94 C16 63.64 16 33.28 16 2 C11.05 2 6.1 2 1 2 C1 14.21 1 26.42 1 39 C0.67 39 0.34 39 0 39 C0 26.13 0 13.26 0 0 Z " fill="#1B2025" transform="translate(780,108)"/>
<path d="M0 0 C3.53288781 3.09127683 4.82867489 4.91494096 5.5625 9.5625 C4.91429589 13.52374737 3.81200626 15.18799374 1 18 C-2.49202465 19.74601232 -6.18982279 19.55838804 -10 19 C-13.0625 17.0625 -13.0625 17.0625 -15 14 C-15.69022545 10.84549858 -15.73034598 8.14961704 -15 5 C-10.61002971 -0.54522563 -6.86135008 -2.11219381 0 0 Z " fill="#2F3339" transform="translate(561,107)"/>
<path d="M0 0 C3.0625 1.9375 3.0625 1.9375 5 5 C6.03945854 9.75058323 5.669717 12.94141507 3.0625 17.0625 C-1.04140419 19.65884755 -4.26274904 19.95259938 -9 19 C-11.87029869 17.20606332 -13.49131638 16.01736724 -15 13 C-15.39447548 8.81855989 -15.45035186 6.69053952 -13.125 3.125 C-9.25066951 -0.74933049 -5.26519502 -0.77162341 0 0 Z " fill="#2E3237" transform="translate(470,107)"/>
<path d="M0 0 C5.61 0 11.22 0 17 0 C17 12.87 17 25.74 17 39 C16.67 39 16.34 39 16 39 C16 26.79 16 14.58 16 2 C11.38 2 6.76 2 2 2 C2 32.36 2 62.72 2 94 C6.62 94 11.24 94 16 94 C16 81.13 16 68.26 16 55 C16.33 55 16.66 55 17 55 C17 68.2 17 81.4 17 95 C11.39 95 5.78 95 0 95 C0 63.65 0 32.3 0 0 Z " fill="#282D32" transform="translate(722,108)"/>
<path d="M0 0 C0.804375 -0.00128906 1.60875 -0.00257813 2.4375 -0.00390625 C3.283125 -0.00003906 4.12875 0.00382813 5 0.0078125 C6.2684375 0.00201172 6.2684375 0.00201172 7.5625 -0.00390625 C8.366875 -0.00261719 9.17125 -0.00132812 10 0 C10.7425 0.00112793 11.485 0.00225586 12.25 0.00341797 C14 0.1328125 14 0.1328125 15 1.1328125 C15.09425595 3.28024799 15.11742648 5.43082276 15.11352539 7.58032227 C15.11367142 8.25346466 15.11381744 8.92660706 15.1139679 9.62014771 C15.11326878 11.85487034 15.10547652 14.0895106 15.09765625 16.32421875 C15.09579206 17.86978612 15.09436816 19.41535407 15.09336853 20.96092224 C15.0895434 25.03638327 15.07971317 29.11180887 15.06866455 33.18725586 C15.05845032 37.34293132 15.05387089 41.49861249 15.04882812 45.65429688 C15.03809089 53.81381837 15.02101454 61.97331103 15 70.1328125 C14.34 70.1328125 13.68 70.1328125 13 70.1328125 C13 47.6928125 13 25.2528125 13 2.1328125 C7.72 2.1328125 2.44 2.1328125 -3 2.1328125 C-3 16.3228125 -3 30.5128125 -3 45.1328125 C-3.33 45.1328125 -3.66 45.1328125 -4 45.1328125 C-4.16784025 38.88501784 -4.32780106 32.63705777 -4.48217773 26.38891602 C-4.53568206 24.26159045 -4.59101764 22.13431014 -4.64819336 20.00708008 C-4.72986981 16.9566423 -4.80504681 13.90610453 -4.87890625 10.85546875 C-4.90594131 9.89818375 -4.93297638 8.94089874 -4.96083069 7.9546051 C-4.98092697 7.07376755 -5.00102325 6.19292999 -5.02172852 5.28540039 C-5.04171402 4.50596573 -5.06169952 3.72653107 -5.08229065 2.92347717 C-4.92327665 -0.53670641 -2.964931 0.00450402 0 0 Z " fill="#D3D3D4" transform="translate(854,132.8671875)"/>
<path d="M0 0 C5.39346988 -0.02464849 10.78690725 -0.04283531 16.18041992 -0.05493164 C18.01668875 -0.05997231 19.85295354 -0.06680477 21.68920898 -0.07543945 C24.32276401 -0.08751672 26.95626616 -0.09323081 29.58984375 -0.09765625 C30.41588608 -0.10281754 31.24192841 -0.10797882 32.09300232 -0.11329651 C34.06236368 -0.11349205 36.03161614 -0.06204152 38 0 C39 1 39 1 39.09765625 4.16015625 C39.08605469 5.44792969 39.07445312 6.73570313 39.0625 8.0625 C39.05347656 9.35285156 39.04445312 10.64320312 39.03515625 11.97265625 C39.02355469 12.97167969 39.01195312 13.97070312 39 15 C38.67 15 38.34 15 38 15 C37.505 9.06 37.505 9.06 37 3 C24.46 3 11.92 3 -1 3 C-0.67 2.01 -0.34 1.02 0 0 Z " fill="#E6EEF0" transform="translate(139,79)"/>
<path d="M0 0 C0.33 0 0.66 0 1 0 C1.19412181 1.47831221 1.38012131 2.95769316 1.5625 4.4375 C1.71912109 5.67306641 1.71912109 5.67306641 1.87890625 6.93359375 C1.93884766 7.95646484 1.93884766 7.95646484 2 9 C1 10 1 10 -0.82862854 10.12025452 C-1.62582809 10.11803391 -2.42302765 10.11581329 -3.24438477 10.11352539 C-4.14524307 10.11344986 -5.04610138 10.11337433 -5.97425842 10.11329651 C-6.95341721 10.10813522 -7.93257599 10.10297394 -8.94140625 10.09765625 C-9.93881332 10.0962413 -10.9362204 10.09482635 -11.96385193 10.09336853 C-15.16343124 10.08775114 -18.36294169 10.07519571 -21.5625 10.0625 C-23.72591045 10.05748724 -25.88932199 10.05292395 -28.05273438 10.04882812 C-33.36851325 10.03777607 -38.68425171 10.02102104 -44 10 C-43.67 9.01 -43.34 8.02 -43 7 C-28.81 7 -14.62 7 0 7 C-0.495 5.515 -0.495 5.515 -1 4 C-0.5625 1.8125 -0.5625 1.8125 0 0 Z " fill="#C5DBEC" transform="translate(211,193)"/>
<path d="M0 0 C0.33 0 0.66 0 1 0 C1 12.87 1 25.74 1 39 C14.53 39 28.06 39 42 39 C42 39.33 42 39.66 42 40 C21.21 40.495 21.21 40.495 0 41 C-1.66880615 37.66238769 -0.99628371 33.93240477 -0.87890625 30.2734375 C-0.85529526 29.41062164 -0.83168427 28.54780579 -0.80735779 27.65884399 C-0.73065703 24.89739794 -0.64666038 22.13622782 -0.5625 19.375 C-0.50928573 17.50522193 -0.45654529 15.63543031 -0.40429688 13.765625 C-0.27503321 9.17690791 -0.13922496 4.58842523 0 0 Z " fill="#41474B" transform="translate(739,108)"/>
<path d="M0 0 C3.96134883 5.94202325 3.4796734 12.06871932 3 19 C2.2489612 22.19191491 1.24044683 24.95056821 0 28 C-0.66 28 -1.32 28 -2 28 C-1.855625 26.989375 -1.71125 25.97875 -1.5625 24.9375 C-1.03983986 20.718345 -0.6863383 16.48922749 -0.375 12.25 C-0.27960937 10.97640625 -0.18421875 9.7028125 -0.0859375 8.390625 C-0.01417584 5.55930121 -0.23656569 3.66555031 -1 1 C-0.67 0.67 -0.34 0.34 0 0 Z " fill="#EBEBEB" transform="translate(621,156)"/>
<path d="M0 0 C1.33855056 0.78281305 2.67073644 1.57651877 4 2.375 C5.11375 3.03628906 5.11375 3.03628906 6.25 3.7109375 C7.11625 4.34902344 7.11625 4.34902344 8 5 C8 5.66 8 6.32 8 7 C2.18784382 7.8916376 -3.146336 8.00380742 -9 7.5625 C-10.16208984 7.48418945 -10.16208984 7.48418945 -11.34765625 7.40429688 C-13.23224487 7.27633098 -15.11620371 7.13914404 -17 7 C-17 6.67 -17 6.34 -17 6 C-11.39 6 -5.78 6 0 6 C0 4.02 0 2.04 0 0 Z M-18 8 C-12.06 8 -6.12 8 0 8 C0 8.33 0 8.66 0 9 C-5.94 9 -11.88 9 -18 9 C-18 8.67 -18 8.34 -18 8 Z " fill="#EAE9E8" transform="translate(894,197)"/>
<path d="M0 0 C2.65069433 2.47398137 4.71615844 4.57642251 6 8 C6 9.32 6 10.64 6 12 C0.39 12 -5.22 12 -11 12 C-11.99 9.69 -12.98 7.38 -14 5 C-12.68 5 -11.36 5 -10 5 C-10 6.65 -10 8.3 -10 10 C-5.38 10 -0.76 10 4 10 C3.34 8.72125 2.68 7.4425 2 6.125 C0 2.25 0 2.25 0 0 Z " fill="#1A1E23" transform="translate(532,142)"/>
<path d="M0 0 C4.95 0 9.9 0 15 0 C14.67 0.66 14.34 1.32 14 2 C13.2575 1.9175 12.515 1.835 11.75 1.75 C8.20211026 2.07253543 7.33159899 3.42720112 5 6 C4.34 6 3.68 6 3 6 C2.67 6.99 2.34 7.98 2 9 C1.67 8.01 1.34 7.02 1 6 C0.34 5.34 -0.32 4.68 -1 4 C-0.67 2.68 -0.34 1.36 0 0 Z " fill="#383D44" transform="translate(367,110)"/>
<path d="M0 0 C5.94 0 11.88 0 18 0 C20 6 20 6 19 10 C18.34 7.36 17.68 4.72 17 2 C12.05 2 7.1 2 2 2 C1.67 3.32 1.34 4.64 1 6 C0.67 4.02 0.34 2.04 0 0 Z " fill="#25292F" transform="translate(365,108)"/>
<path d="M0 0 C0.33 0.66 0.66 1.32 1 2 C7.6 2 14.2 2 21 2 C21 2.99 21 3.98 21 5 C17.70849875 5.08685287 14.4172904 5.14033895 11.125 5.1875 C10.18785156 5.21263672 9.25070312 5.23777344 8.28515625 5.26367188 C7.38925781 5.27333984 6.49335938 5.28300781 5.5703125 5.29296875 C4.74289551 5.3086792 3.91547852 5.32438965 3.06298828 5.34057617 C2.38220215 5.22818604 1.70141602 5.1157959 1 5 C0.34 4.01 -0.32 3.02 -1 2 C-0.67 1.34 -0.34 0.68 0 0 Z " fill="#D2D2D1" transform="translate(395,201)"/>
<path d="M0 0 C5.94 0 11.88 0 18 0 C17.34 2.64 16.68 5.28 16 8 C15 4 15 4 16 2 C8.08 2.495 8.08 2.495 0 3 C0 2.01 0 1.02 0 0 Z " fill="#262B31" transform="translate(430,108)"/>
<path d="M0 0 C0.33 0 0.66 0 1 0 C1 3.63 1 7.26 1 11 C6.61 11 12.22 11 18 11 C18 11.33 18 11.66 18 12 C15.02111874 12.1938211 12.04209754 12.38035102 9.0625 12.5625 C8.21236328 12.61857422 7.36222656 12.67464844 6.48632812 12.73242188 C5.67744141 12.78076172 4.86855469 12.82910156 4.03515625 12.87890625 C3.2862915 12.9260376 2.53742676 12.97316895 1.76586914 13.02172852 C0 13 0 13 -1 12 C-1.09851171 10.16884117 -1.12972629 8.33380067 -1.125 6.5 C-1.12757813 5.4996875 -1.13015625 4.499375 -1.1328125 3.46875 C-1 1 -1 1 0 0 Z " fill="#E7E7E7" transform="translate(692,192)"/>
<path d="M0 0 C0 1.98 0 3.96 0 6 C5.28 6 10.56 6 16 6 C16 6.33 16 6.66 16 7 C10.06 7.33 4.12 7.66 -2 8 C-2 7.34 -2 6.68 -2 6 C-2.99 6 -3.98 6 -5 6 C-5 5.01 -5 4.02 -5 3 C-1.55555556 0 -1.55555556 0 0 0 Z " fill="#E4E4E3" transform="translate(851,197)"/>
<path d="M0 0 C0.66 0.33 1.32 0.66 2 1 C1.98839844 1.61488281 1.97679687 2.22976562 1.96484375 2.86328125 C1.95582031 3.67152344 1.94679688 4.47976562 1.9375 5.3125 C1.92589844 6.11300781 1.91429687 6.91351563 1.90234375 7.73828125 C1.90342145 10.16861334 1.90342145 10.16861334 3 13 C6.3 13.66 9.6 14.32 13 15 C9 17 9 17 6.5 16.375 C2.62576124 14.24416868 0.43569081 11.65353621 -2 8 C-2.25 4.9375 -2.25 4.9375 -2 2 C-1.34 1.34 -0.68 0.68 0 0 Z " fill="#E1E1E2" transform="translate(545,111)"/>
<path d="M0 0 C5.28 0 10.56 0 16 0 C15.01 0.33 14.02 0.66 13 1 C13 1.66 13 2.32 13 3 C8.07872966 3.16682272 4.49656104 3.24828052 0 1 C0 0.67 0 0.34 0 0 Z " fill="#E9E9E9" transform="translate(905,204)"/>
<path d="M0 0 C0.33 0 0.66 0 1 0 C1 2.64 1 5.28 1 8 C0.34 8 -0.32 8 -1 8 C-1.33 10.97 -1.66 13.94 -2 17 C-2.99 17 -3.98 17 -5 17 C-1.92482916 5.47835991 -1.92482916 5.47835991 0 0 Z " fill="#E7E7E7" transform="translate(432,155)"/>
<path d="M0 0 C1.98 0 3.96 0 6 0 C5.67 0.99 5.34 1.98 5 3 C4.34 3 3.68 3 3 3 C1.99740493 6.00778521 1.69685358 8.53820647 1.4375 11.6875 C1.35371094 12.68136719 1.26992188 13.67523438 1.18359375 14.69921875 C1.12300781 15.45847656 1.06242188 16.21773437 1 17 C0.67 17 0.34 17 0 17 C0 11.39 0 5.78 0 0 Z " fill="#3C3F46" transform="translate(651,136)"/>
<path d="M0 0 C1.37478516 0.01740234 1.37478516 0.01740234 2.77734375 0.03515625 C3.69644531 0.04417969 4.61554687 0.05320313 5.5625 0.0625 C6.27277344 0.07410156 6.98304688 0.08570313 7.71484375 0.09765625 C6.72484375 1.58265625 6.72484375 1.58265625 5.71484375 3.09765625 C3.10522275 3.481769 0.70903635 3.70058822 -1.91015625 3.78515625 C-2.96976563 3.83639648 -2.96976563 3.83639648 -4.05078125 3.88867188 C-5.79501313 3.97116933 -7.5400602 4.0360896 -9.28515625 4.09765625 C-9.28515625 3.10765625 -9.28515625 2.11765625 -9.28515625 1.09765625 C-7.83109375 1.12859375 -7.83109375 1.12859375 -6.34765625 1.16015625 C-3.02133961 1.09227224 -3.04081544 0.12994938 0 0 Z " fill="#ECEBEA" transform="translate(604.28515625,130.90234375)"/>
<path d="M0 0 C0.33 0 0.66 0 1 0 C1 5.61 1 11.22 1 17 C0.01 16.34 -0.98 15.68 -2 15 C-2.36328125 12.03125 -2.36328125 12.03125 -2.3125 8.5 C-2.30863281 7.3346875 -2.30476562 6.169375 -2.30078125 4.96875 C-2 2 -2 2 0 0 Z " fill="#3C4146" transform="translate(575,160)"/>
<path d="M0 0 C2.25 0.25 2.25 0.25 4 1 C2.60667426 4.36720387 1.0210714 5.9859524 -2 8 C-2.66 6.68 -3.32 5.36 -4 4 C-2.25 1.9375 -2.25 1.9375 0 0 Z " fill="#292E32" transform="translate(631,189)"/>
<path d="M0 0 C1.13732426 3.40401948 0.83989957 5.77456664 0.0625 9.25 C-0.13214844 10.14203125 -0.32679688 11.0340625 -0.52734375 11.953125 C-0.68332031 12.62859375 -0.83929688 13.3040625 -1 14 C-1.66 14 -2.32 14 -3 14 C-3 15.32 -3 16.64 -3 18 C-3.66 18 -4.32 18 -5 18 C-3.75971762 11.82777121 -2.10396411 5.93317878 0 0 Z " fill="#E8E8E8" transform="translate(438,137)"/>
<path d="M0 0 C3.0390625 0.2421875 3.0390625 0.2421875 6.625 0.875 C8.40777344 1.18050781 8.40777344 1.18050781 10.2265625 1.4921875 C11.14179687 1.65976563 12.05703125 1.82734375 13 2 C12.67 2.99 12.34 3.98 12 5 C7.38 4.01 2.76 3.02 -2 2 C-1.34 1.34 -0.68 0.68 0 0 Z " fill="#E9EAEA" transform="translate(514,160)"/>
<path d="M0 0 C-0.84884766 0.16435547 -0.84884766 0.16435547 -1.71484375 0.33203125 C-2.81505859 0.56986328 -2.81505859 0.56986328 -3.9375 0.8125 C-4.66839844 0.96332031 -5.39929688 1.11414063 -6.15234375 1.26953125 C-7.06693359 1.63111328 -7.06693359 1.63111328 -8 2 C-8.33 2.99 -8.66 3.98 -9 5 C-12.0625 6.6875 -12.0625 6.6875 -15 8 C-13.49364535 3.78220697 -10.75987578 2.2252326 -7 0 C-3.86650268 -1.04449911 -3.01031744 -0.93423645 0 0 Z " fill="#181B20" transform="translate(502,136)"/>
<path d="M0 0 C0.66 0 1.32 0 2 0 C2 0.66 2 1.32 2 2 C3.32 2.66 4.64 3.32 6 4 C5 5 5 5 1.5625 5.1875 C-2 5 -2 5 -4 3 C-3.01 2.67 -2.02 2.34 -1 2 C-0.67 1.34 -0.34 0.68 0 0 Z " fill="#393F45" transform="translate(464,120)"/>
<path d="M0 0 C0.66 0 1.32 0 2 0 C2 0.99 2 1.98 2 3 C2.66 3 3.32 3 4 3 C4.66 5.64 5.32 8.28 6 11 C5.01 11 4.02 11 3 11 C2.01 7.37 1.02 3.74 0 0 Z " fill="#EDEDED" transform="translate(383,109)"/>
<path d="M0 0 C0.66 0.66 1.32 1.32 2 2 C1.34 3.65 0.68 5.3 0 7 C-1.98 6.34 -3.96 5.68 -6 5 C-2.25 1.125 -2.25 1.125 0 0 Z " fill="#1F84DA" transform="translate(262,208)"/>
<path d="M0 0 C0.33 0 0.66 0 1 0 C1.9765625 6.0546875 1.9765625 6.0546875 2 8 C1.34 8.66 0.68 9.32 0 10 C-0.74926071 6.33694766 -1.2380014 3.57644848 0 0 Z " fill="#EAEAEA" transform="translate(573,175)"/>
<path d="M0 0 C1 3 1 3 0.375 5.625 C-0.305625 6.800625 -0.305625 6.800625 -1 8 C-2.65 8.33 -4.3 8.66 -6 9 C-4.02 6.03 -2.04 3.06 0 0 Z " fill="#0969D4" transform="translate(222,157)"/>
<path d="M0 0 C0.33 0.66 0.66 1.32 1 2 C0.67 2.99 0.34 3.98 0 5 C-2.97 4.67 -5.94 4.34 -9 4 C-6.05944678 2.03963119 -4.37666283 1.62201684 -1 1 C-0.67 0.67 -0.34 0.34 0 0 Z " fill="#3A3E45" transform="translate(518,140)"/>
</svg>
